HIERARCHY
ROOT ui
{
	 OFFSET 0 0 0
	 CHANNELS 3 XPosition YPosition Z Position
	 EndSite
	 {
	 OFFSET 0 -1 0
	 }
}
ROOT li
{
	 OFFSET 0 0 0
	 CHANNELS 3 XPosition YPosition Z Position
	 EndSite
	 {
	 OFFSET 0 -1 0
	 }
}
ROOT ul
{
	 OFFSET 0 0 0
	 CHANNELS 3 XPosition YPosition Z Position
	 EndSite
	 {
	 OFFSET 0 -1 0
	 }
}
ROOT ll
{
	 OFFSET 0 0 0
	 CHANNELS 3 XPosition YPosition Z Position
	 EndSite
	 {
	 OFFSET 0 -1 0
	 }
}
ROOT tt
{
	 OFFSET 0 0 0
	 CHANNELS 3 XPosition YPosition Z Position
	 EndSite
	 {
	 OFFSET 0 -1 0
	 }
}
ROOT tb
{
	 OFFSET 0 0 0
	 CHANNELS 3 XPosition YPosition Z Position
	 EndSite
	 {
	 OFFSET 0 -1 0
	 }
}
ROOT td
{
	 OFFSET 0 0 0
	 CHANNELS 3 XPosition YPosition Z Position
	 EndSite
	 {
	 OFFSET 0 -1 0
	 }
}
ROOT v
{
	 OFFSET 0 0 0
	 CHANNELS 3 XPosition YPosition Z Position
	 EndSite
	 {
	 OFFSET 0 -1 0
	 }
}
ROOT bn
{
	 OFFSET 0 0 0
	 CHANNELS 3 XPosition YPosition Z Position
	 EndSite
	 {
	 OFFSET 0 -1 0
	 }
}
MOTION
Frames: 29
Frame Time: 0.002
0.008414761543273926	-0.001445402979850769	0		0.48891290283203126	-2.45067822265625	0		-1.0804866943359375	-0.05564487075805664	0		-0.7362338256835937	-2.45189453125	0		1.0275970458984376	-0.6163043823242188	0		2.630639892578125	-0.2805384216308594	0		4.092021240234375	-0.3337571105957031	0		5.5645439453125	0.10491431427001953	0		-0.2860328063964844	5.89444970703125	0		
0.009461581230163574	-0.0016965110301971436	0		0.48061624145507814	-2.442888427734375	0		-1.116446044921875	-0.055146488189697265	0		-0.7824824829101562	-2.440315185546875	0		1.0315863037109374	-0.6127922973632812	0		2.6357216796875	-0.27534368896484374	0		4.09300537109375	-0.3347785949707031	0		5.56149365234375	0.09567469787597656	0		-0.15156446838378906	5.91431103515625	0		
0.010556705474853515	-0.0019589929580688475	0		0.4641534729003906	-2.44898779296875	0		-1.1094364013671876	-0.06028084182739258	0		-0.7459059448242188	-2.4439609375	0		1.0325635986328126	-0.6132517700195312	0		2.67247705078125	-0.29564642333984376	0		4.08612646484375	-0.32970944213867187	0		5.57157666015625	0.09220851135253906	0		-0.1351670379638672	5.92486962890625	0		
0.011691312789916992	-0.002229759931564331	0		0.466860595703125	-2.446376708984375	0		-1.110177001953125	-0.05130619049072266	0		-0.7923431396484375	-2.45037548828125	0		0.9975692138671876	-0.6141764526367187	0		2.6570546875	-0.2631783752441406	0		4.09918115234375	-0.3319481201171875	0		5.567880859375	0.10093828582763673	0		-0.2510405731201172	5.91540869140625	0		
0.023005422592163087	0.007340654850006103	0		0.48567727661132815	-2.439014892578125	0		-1.1090238037109375	-0.0513679313659668	0		-0.7764351806640625	-2.436728759765625	0		1.0435792236328125	-0.617327392578125	0		2.650908447265625	-0.28084933471679685	0		4.0984951171875	-0.3189740295410156	0		5.56906298828125	0.09960346221923828	0		-0.1154293441772461	5.93514794921875	0		
0.014028921127319335	-0.0027824230194091796	0		0.4584026184082031	-2.43894677734375	0		-1.1078577880859375	-0.05143634033203125	0		-0.777743408203125	-2.43882763671875	0		1.0387335205078125	-0.6117041015625	0		2.67024609375	-0.2678970947265625	0		4.095518798828125	-0.32594833374023435	0		5.5702568359375	0.09829307556152343	0		-0.26064276123046876	5.90417236328125	0		
0.015197367668151855	-0.0030578041076660158	0		0.4840523986816406	-2.4446923828125	0		-1.06971826171875	-0.05308909225463867	0		-0.7790433349609375	-2.440929443359375	0		1.0367459716796874	-0.6151160888671875	0		2.65038525390625	-0.2673208923339844	0		4.09662939453125	-0.32695645141601565	0		5.571443359375	0.09702017211914063	0		-0.27355279541015626	5.89518212890625	0		
-0.06063773727416992	-0.0011104979515075683	0		0.46768072509765624	-2.450773681640625	0		-1.0927266845703125	-0.06179298782348633	0		-0.778321533203125	-2.441063720703125	0		0.9987063598632813	-0.6199441528320313	0		2.651479248046875	-0.26804290771484374	0		4.097712890625	-0.32792623901367185	0		5.57744091796875	0.0857198715209961	0		-0.242090087890625	5.91449951171875	0		
0.024536659240722656	0.003296854019165039	0		0.4984033203125	-2.449588134765625	0		-1.091647216796875	-0.061876338958740236	0		-0.7636912231445312	-2.4454208984375	0		1.0117103271484376	-0.619556396484375	0		2.671331298828125	-0.28103167724609374	0		4.093926025390625	-0.3177675476074219	0		5.58367138671875	0.09248069000244141	0		-0.10572907257080078	5.93313525390625	0		
-0.04835152053833008	0.009238539695739746	0		0.47211111450195314	-2.446474609375	0		-1.095360595703125	-0.044882633209228515	0		-0.76303466796875	-2.445554443359375	0		1.0457960205078125	-0.6104881591796875	0		2.672729736328125	-0.2556807556152344	0		4.10202783203125	-0.31073922729492187	0		5.5788681640625	0.10149631500244141	0		-0.11998271942138672	5.9231630859375	0		
0.02344904899597168	-1.412539929151535E-4	0		0.5126963500976562	-2.448421875	0		-1.065561767578125	-0.053437278747558596	0		-0.77636083984375	-2.44145654296875	0		1.04055517578125	-0.616764404296875	0		2.65440869140625	-0.2699653015136719	0		4.09884375	-0.316462890625	0		5.57569140625	0.09257263946533204	0		-0.11822384643554687	5.9239462890625	0		
-0.049629570007324215	0.004851527214050293	0		0.4701842041015625	-2.45199560546875	0		-1.101700927734375	-0.05191766357421875	0		-0.7439313354492187	-2.4491015625	0		1.041325927734375	-0.6171075439453125	0		2.6552216796875	-0.2705050354003906	0		4.09655322265625	-0.323128662109375	0		5.57725341796875	0.07366299438476563	0		-0.2641607360839844	5.8941572265625	0		
0.02097511672973633	-0.004495718955993652	0		0.4945793151855469	-2.457640625	0		-1.1009609375	-0.05199786376953125	0		-0.7586790771484375	-2.46297119140625	0		1.0029277954101563	-0.6217752075195313	0		2.655938232421875	-0.2709909362792969	0		4.1003623046875	-0.31782049560546877	0		5.5773037109375	0.09087561798095703	0		-0.13043374633789062	5.913806640625	0		
-0.04824165725708008	0.004480717182159424	0		0.4741576843261719	-2.44752197265625	0		-1.0803770751953126	-0.055407001495361326	0		-0.7542041625976562	-2.459148193359375	0		1.0543873291015624	-0.6298964233398437	0		2.670684814453125	-0.26365631103515624	0		4.108138671875	-0.30850619506835936	0		5.582787109375	0.08008656311035156	0		-0.23225381469726564	5.91334619140625	0		
0.02926767158508301	0.0020374519824981688	0		0.5014424743652344	-2.451173583984375	0		-1.0916768798828125	-0.04528490829467773	0		-0.7637318115234375	-2.45108544921875	0		1.0042131958007812	-0.6092981567382812	0		2.662167724609375	-0.26588568115234373	0		4.1175654296875	-0.3141513671875	0		5.57849755859375	0.08955350494384766	0		-0.11307263946533203	5.922232421875	0		
-0.04727109909057617	0.004177711963653565	0		0.46183273315429685	-2.443685546875	0		-1.0993623046875	-0.052222366333007815	0		-0.7315692138671875	-2.457714599609375	0		1.046515869140625	-0.6152146606445312	0		2.676715087890625	-0.25844775390625	0		4.10011376953125	-0.3062764892578125	0		5.57310498046875	0.09912828826904296	0		-0.11222110748291016	5.92309375	0		
0.022920509338378907	-0.005123476982116699	0		0.4620327453613281	-2.443840576171875	0		-1.0990296630859375	-0.05229092407226563	0		-0.7802286987304687	-2.44898193359375	0		1.0437674560546875	-0.6183514404296875	0		2.65505615234375	-0.2573565063476563	0		4.1124306640625	-0.3068349609375	0		5.5882763671875	0.08843915557861329	0		-0.2458907012939453	5.9042236328125	0		
-0.05380683898925781	-0.002942091941833496	0		0.47201687622070315	-2.453141845703125	0		-1.098786865234375	-0.05235613632202148	0		-0.7593641967773438	-2.46541259765625	0		1.0049065551757812	-0.6228541259765625	0		2.651189453125	-0.26351950073242186	0		4.10474755859375	-0.30199661254882815	0		5.584357421875	0.07814702606201172	0		-0.24341848754882814	5.9020869140625	0		
0.030447792053222657	0.0015430749654769898	0		0.4751834716796875	-2.448307861328125	0		-1.0746265869140625	-0.052822677612304685	0		-0.7911593627929687	-2.45794677734375	0		1.0201332397460938	-0.6182405395507813	0		2.68837451171875	-0.2623322143554688	0		4.1128681640625	-0.30436859130859373	0		5.58965966796875	0.08577427673339844	0		-0.2279040985107422	5.9107421875	0		
-0.04335742568969726	0.007707637786865234	0		0.4923243103027344	-2.44269140625	0		-1.074528076171875	-0.052881389617919924	0		-0.7212628173828125	-2.467193603515625	0		1.0592803955078125	-0.6150081176757812	0		2.64693017578125	-0.2347741241455078	0		4.1080966796875	-0.29646649169921874	0		5.58393115234375	0.0956581268310547	0		-0.1104618911743164	5.92168505859375	0		
0.03059785270690918	0.001387671947479248	0		0.4981207275390625	-2.45586767578125	0		-1.09035791015625	-0.045667449951171876	0		-0.7592236938476562	-2.46561181640625	0		1.04730712890625	-0.6158897094726562	0		2.655587158203125	-0.2580291748046875	0		4.1160400390625	-0.3027269287109375	0		5.57984814453125	0.08758078002929688	0		-0.11031417083740234	5.9226162109375	0		
-0.053472511291503905	-0.0032489380836486816	0		0.513178466796875	-2.453181640625	0		-1.0614783935546874	-0.05421016311645508	0		-0.7283712158203125	-2.475189453125	0		1.0442733154296875	-0.6189005737304687	0		2.655605224609375	-0.25809771728515624	0		4.11119384765625	-0.29471795654296873	0		5.57986767578125	0.08750044250488281	0		-0.12543817138671876	5.91281396484375	0		
0.02757504653930664	-0.001666491985321045	0		0.47218707275390626	-2.453533447265625	0		-1.0825682373046874	-0.05990662384033203	0		-0.7642955932617187	-2.471632080078125	0		1.050182373046875	-0.6250438842773437	0		2.6775947265625	-0.25950482177734374	0		4.11120361328125	-0.2947466125488281	0		5.5847060546875	0.07739540863037109	0		-0.2777225341796875	5.898337890625	0		
0.027594932556152342	-0.0017050460577011108	0		0.4742870178222656	-2.45060107421875	0		-1.084395263671875	-0.05092610549926758	0		-0.7622123413085937	-2.46971435546875	0		0.9893704833984375	-0.6150408325195312	0		2.6401806640625	-0.22587406921386718	0		4.102330078125	-0.2885845642089844	0		5.589859375	0.08533847045898438	0		-0.22951055908203125	5.91348291015625	0		
0.03374686431884766	0.0041617069244384765	0		0.47438467407226564	-2.450623779296875	0		-1.08620751953125	-0.04294557952880859	0		-0.7621143188476562	-2.46976025390625	0		1.0504754638671876	-0.6130836791992188	0		2.664895263671875	-0.24627503967285155	0		4.11260498046875	-0.27570956420898435	0		5.5799443359375	0.08758055114746094	0		-0.11040175628662109	5.92243701171875	0		
0.02774378204345703	-0.0017612199783325194	0		0.48959170532226565	-2.447890625	0		-1.09422607421875	-0.049862693786621094	0		-0.7660220947265625	-2.473737060546875	0		1.000510986328125	-0.6172398681640625	0		2.691079345703125	-0.24167288208007812	0		4.097626953125	-0.28037890625	0		5.58003955078125	0.08769448089599609	0		-0.12561907958984375	5.91266259765625	0		
0.023826852798461914	-0.005713664054870606	0		0.47068402099609374	-2.455576171875	0		-1.0940748291015625	-0.0499171028137207	0		-0.7318860473632812	-2.479352783203125	0		1.044656494140625	-0.6189705200195312	0		2.65829150390625	-0.2380575408935547	0		4.1097666015625	-0.2814771118164062	0		5.5801865234375	0.0878430404663086	0		-0.11146611785888672	5.92340087890625	0		
0.024028900146484376	-0.005730350971221924	0		0.4969164733886719	-2.459013427734375	0		-1.07797412109375	-0.056240036010742185	0		-0.7695765991210938	-2.4777578125	0		1.0058012084960937	-0.6232966918945313	0		2.656753662109375	-0.2229519805908203	0		4.11307861328125	-0.2754042053222656	0		5.58038525390625	0.08801785278320312	0		-0.24383587646484375	5.90259814453125	0		
-0.045578746795654296	0.0034278359413146974	0		0.4753927001953125	-2.450641845703125	0		-1.0677586669921875	-0.05846101760864258	0		-0.7553224487304687	-2.483033935546875	0		1.0180875854492188	-0.622474609375	0		2.681671875	-0.24328372192382813	0		4.117419921875	-0.27033392333984374	0		5.590595703125	0.08604280853271484	0		-0.2607529296875	5.905859375	0		
